<svg width="38" height="31" viewBox="0 0 38 31" fill="none" xmlns="http://www.w3.org/2000/svg">
<g filter="url(#filter0_d)">
<path d="M9.62498 16.25C7.9025 16.25 6.5 17.6525 6.5 19.375C6.5 21.0974 7.9025 22.5 9.62498 22.5C11.3475 22.5 12.75 21.0975 12.75 19.375C12.75 17.6525 11.3475 16.25 9.62498 16.25ZM9.62498 21.25C8.59121 21.25 7.74998 20.4088 7.74998 19.375C7.74998 18.3413 8.59121 17.5 9.62498 17.5C10.6588 17.5 11.5 18.3413 11.5 19.375C11.5 20.4087 10.6588 21.25 9.62498 21.25Z" fill="black"/>
<path d="M28.375 16.25C26.6525 16.25 25.25 17.6525 25.25 19.375C25.25 21.0974 26.6525 22.5 28.375 22.5C30.0975 22.5 31.5 21.0975 31.5 19.375C31.5 17.6525 30.0975 16.25 28.375 16.25ZM28.375 21.25C27.3412 21.25 26.5 20.4088 26.5 19.375C26.5 18.3413 27.3412 17.5 28.375 17.5C29.4088 17.5 30.25 18.3413 30.25 19.375C30.25 20.4087 29.4088 21.25 28.375 21.25Z" fill="black"/>
<path d="M30.25 12.5H29.1925C28.8062 12.5 28.4275 12.3675 28.125 12.125L23.2 8.18496C22.6475 7.74375 21.9538 7.5 21.2475 7.5H12.2125C11.165 7.5 10.1938 8.02002 9.61252 8.89125L8.54875 10.4887C8.23 10.965 7.6975 11.25 7.12498 11.25C5.4025 11.25 4 12.6525 4 14.375V16.875C4 18.5975 5.4025 20 7.12498 20C7.46998 20 7.75 19.72 7.75 19.375C7.75 19.03 7.46998 18.75 7.12498 18.75C6.09121 18.75 5.24998 17.9088 5.24998 16.875V14.375C5.24998 13.3412 6.09121 12.5 7.12498 12.5C8.1175 12.5 9.03748 12.0075 9.58873 11.1812L10.6525 9.58494C11.0013 9.06246 11.585 8.74992 12.2125 8.74992H21.2475C21.6725 8.74992 22.0875 8.89617 22.42 9.16119L27.345 13.0999C27.8662 13.5187 28.5237 13.7499 29.1937 13.7499H30.25C32.0837 13.7499 32.75 15.6186 32.75 16.8749C32.75 18.1061 31.8075 18.7499 30.875 18.7499C30.53 18.7499 30.25 19.0299 30.25 19.3749C30.25 19.7199 30.53 19.9999 30.875 19.9999C32.6563 20 34 18.6562 34 16.875C34 14.7537 32.6863 12.5 30.25 12.5Z" fill="black"/>
<path d="M25.875 18.75H12.125C11.78 18.75 11.5 19.03 11.5 19.375C11.5 19.72 11.78 20 12.125 20H25.875C26.22 20 26.5001 19.72 26.5001 19.375C26.5001 19.03 26.22 18.75 25.875 18.75Z" fill="black"/>
<path d="M24.625 12.5H19V10.625C19 10.28 18.72 9.99995 18.375 9.99995C18.03 9.99995 17.7499 10.28 17.7499 10.625V13.125C17.7499 13.47 18.03 13.75 18.375 13.75H24.625C24.97 13.75 25.25 13.47 25.25 13.125C25.25 12.78 24.97 12.5 24.625 12.5Z" fill="black"/>
<path d="M15.875 12.5H11.8863L12.685 10.905C12.8388 10.5963 12.7138 10.2213 12.405 10.0662C12.095 9.91248 11.7213 10.0362 11.5662 10.3463L10.3163 12.8463C10.2188 13.0388 10.23 13.27 10.3437 13.4538C10.4575 13.6375 10.6587 13.75 10.875 13.75H15.875C16.22 13.75 16.5 13.47 16.5 13.125C16.5 12.78 16.22 12.5 15.875 12.5Z" fill="black"/>
<path d="M20.875 15H19.625C19.28 15 19 15.28 19 15.625C19 15.97 19.28 16.25 19.625 16.25H20.875C21.22 16.25 21.5 15.97 21.5 15.625C21.5 15.28 21.22 15 20.875 15Z" fill="black"/>
</g>
<defs>
<filter id="filter0_d" x="0" y="0" width="38" height="38" filterUnits="userSpaceOnUse" color-interpolation-filters="sRGB">
<feFlood flood-opacity="0" result="BackgroundImageFix"/>
<feColorMatrix in="SourceAlpha" type="matrix" values="0 0 0 0 0 0 0 0 0 0 0 0 0 0 0 0 0 0 127 0" result="hardAlpha"/>
<feOffset dy="4"/>
<feGaussianBlur stdDeviation="2"/>
<feComposite in2="hardAlpha" operator="out"/>
<feColorMatrix type="matrix" values="0 0 0 0 0 0 0 0 0 0 0 0 0 0 0 0 0 0 0.25 0"/>
<feBlend mode="normal" in2="BackgroundImageFix" result="effect1_dropShadow"/>
<feBlend mode="normal" in="SourceGraphic" in2="effect1_dropShadow" result="shape"/>
</filter>
</defs>
</svg>
